<?xml version="1.0"?>
<svg xmlns="http://www.w3.org/2000/svg" xmlns:xlink="http://www.w3.org/1999/xlink" xmlns:svgjs="http://svgjs.com/svgjs" version="1.1" width="512" height="512" x="0" y="0" viewBox="0 0 512 512" style="enable-background:new 0 0 512 512" xml:space="preserve" class=""><g><g xmlns="http://www.w3.org/2000/svg"><path d="m146.116 43.05-12.833 16.942c-2.501 3.302-1.852 8.006 1.45 10.507 1.354 1.026 2.945 1.521 4.522 1.521 2.268 0 4.51-1.024 5.984-2.972l12.833-16.942c2.501-3.302 1.852-8.006-1.45-10.507-3.301-2.501-8.007-1.852-10.506 1.451z" fill="#ffffff" data-original="#000000" style="" class=""/><path d="m186.829 44.475-7.7 16.942c-1.714 3.771-.046 8.218 3.725 9.932 1.006.457 2.061.674 3.099.674 2.851 0 5.576-1.635 6.833-4.398l7.7-16.942c1.714-3.771.046-8.218-3.725-9.932s-8.217-.046-9.932 3.724z" fill="#ffffff" data-original="#000000" style="" class=""/><path d="m232.662 72.021c3.646 0 6.843-2.663 7.406-6.378l2.566-16.942c.62-4.095-2.197-7.918-6.292-8.538-4.095-.624-7.918 2.196-8.539 6.292l-2.566 16.942c-.62 4.095 2.197 7.918 6.292 8.538.381.058.759.086 1.133.086z" fill="#ffffff" data-original="#000000" style="" class=""/><path d="m279.338 72.021c.374 0 .753-.028 1.133-.086 4.096-.62 6.913-4.443 6.292-8.538l-2.566-16.942c-.62-4.096-4.457-6.908-8.538-6.292-4.096.62-6.913 4.443-6.292 8.538l2.566 16.942c.562 3.715 3.759 6.378 7.405 6.378z" fill="#ffffff" data-original="#000000" style="" class=""/><path d="m326.049 72.022c1.037 0 2.092-.217 3.099-.674 3.771-1.714 5.438-6.16 3.725-9.932l-7.7-16.942c-1.714-3.77-6.156-5.438-9.932-3.725-3.771 1.714-5.438 6.16-3.725 9.932l7.7 16.942c1.256 2.766 3.981 4.399 6.833 4.399z" fill="#ffffff" data-original="#000000" style="" class=""/><path d="m372.745 72.021c1.577 0 3.168-.495 4.522-1.521 3.302-2.501 3.951-7.205 1.45-10.507l-12.832-16.943c-2.5-3.301-7.204-3.953-10.507-1.45-3.302 2.501-3.951 7.205-1.45 10.507l12.833 16.942c1.474 1.947 3.715 2.972 5.984 2.972z" fill="#ffffff" data-original="#000000" style="" class=""/><path d="m235.427 129.848h-142.365c-8.754 0-15.876 7.122-15.876 15.877v81.426c0 8.754 7.122 15.876 15.876 15.876h142.365c8.754 0 15.876-7.122 15.876-15.876v-81.426c0-8.755-7.122-15.877-15.876-15.877zm-84.546 98.178h-20.735c1.284-7.062 4.714-13.384 9.588-18.264zm17.573 0-16.079-26.345c3.705-1.355 7.701-2.098 11.87-2.098 16.989 0 31.162 12.288 34.099 28.443zm67.849-.876c0 .483-.393.876-.876.876h-21.928c-3.068-24.457-23.979-43.443-49.254-43.443-7.031 0-13.721 1.478-19.788 4.125l-14.765-24.193c-2.158-3.535-6.773-4.651-10.309-2.495-3.536 2.158-4.652 6.773-2.495 10.31l14.885 24.39c-9.036 7.831-15.221 18.856-16.783 31.307h-21.928c-.483 0-.876-.393-.876-.876v-81.426c0-.483.393-.877.876-.877h142.365c.483 0 .876.394.876.877z" fill="#ffffff" data-original="#000000" style="" class=""/><path d="m203.31 336.437c4.142 0 7.5-3.357 7.5-7.5v-40.857c0-4.143-3.358-7.5-7.5-7.5h-78.131c-4.142 0-7.5 3.357-7.5 7.5v40.857c0 4.143 3.358 7.5 7.5 7.5zm-7.5-15h-24.065v-25.857h24.065zm-63.131-25.858h24.065v25.857h-24.065z" fill="#ffffff" data-original="#000000" style="" class=""/><path d="m415.738 397.336h-65.365c-4.143 0-7.5 3.357-7.5 7.5v34.182c0 4.143 3.357 7.5 7.5 7.5h65.365c4.143 0 7.5-3.357 7.5-7.5v-34.182c0-4.143-3.357-7.5-7.5-7.5zm-57.865 15h17.683v19.182h-17.683zm50.365 19.182h-17.683v-19.182h17.683z" fill="#ffffff" data-original="#000000" style="" class=""/><path d="m250.374 397.336c-4.142 0-7.5 3.357-7.5 7.5v34.182c0 4.143 3.358 7.5 7.5 7.5h65.365c4.143 0 7.5-3.357 7.5-7.5v-34.182c0-4.143-3.357-7.5-7.5-7.5zm7.5 15h17.683v19.182h-17.683zm50.365 19.182h-17.683v-19.182h17.683z" fill="#ffffff" data-original="#000000" style="" class=""/><path d="m344.93 132.943h45.641c4.143 0 7.5-3.357 7.5-7.5s-3.357-7.5-7.5-7.5h-45.641c-4.143 0-7.5 3.357-7.5 7.5s3.358 7.5 7.5 7.5z" fill="#ffffff" data-original="#000000" style="" class=""/><path d="m344.93 158.761h45.641c4.143 0 7.5-3.357 7.5-7.5s-3.357-7.5-7.5-7.5h-45.641c-4.143 0-7.5 3.357-7.5 7.5s3.358 7.5 7.5 7.5z" fill="#ffffff" data-original="#000000" style="" class=""/><path d="m344.93 184.577h45.641c4.143 0 7.5-3.357 7.5-7.5s-3.357-7.5-7.5-7.5h-45.641c-4.143 0-7.5 3.357-7.5 7.5s3.358 7.5 7.5 7.5z" fill="#ffffff" data-original="#000000" style="" class=""/><path d="m344.93 210.395h45.641c4.143 0 7.5-3.357 7.5-7.5s-3.357-7.5-7.5-7.5h-45.641c-4.143 0-7.5 3.357-7.5 7.5s3.358 7.5 7.5 7.5z" fill="#ffffff" data-original="#000000" style="" class=""/><path d="m73.483 106.454c-4.142 0-7.5 3.357-7.5 7.5v.474c0 4.143 3.358 7.5 7.5 7.5s7.5-3.357 7.5-7.5v-.474c0-4.142-3.358-7.5-7.5-7.5z" fill="#ffffff" data-original="#000000" style="" class=""/><path d="m65.983 478.201c0 4.143 3.358 7.5 7.5 7.5s7.5-3.357 7.5-7.5v-.474c0-4.143-3.358-7.5-7.5-7.5s-7.5 3.357-7.5 7.5z" fill="#ffffff" data-original="#000000" style="" class=""/><path d="m438.517 121.928c4.143 0 7.5-3.357 7.5-7.5v-.474c0-4.143-3.357-7.5-7.5-7.5s-7.5 3.357-7.5 7.5v.474c0 4.142 3.358 7.5 7.5 7.5z" fill="#ffffff" data-original="#000000" style="" class=""/><path d="m431.017 478.201c0 4.143 3.357 7.5 7.5 7.5s7.5-3.357 7.5-7.5v-.474c0-4.143-3.357-7.5-7.5-7.5s-7.5 3.357-7.5 7.5z" fill="#ffffff" data-original="#000000" style="" class=""/><path d="m98.418 421.927c0 13.56 11.032 24.591 24.591 24.591s24.591-11.031 24.591-24.591-11.031-24.591-24.591-24.591-24.591 11.031-24.591 24.591zm34.182 0c0 5.288-4.302 9.591-9.591 9.591s-9.591-4.303-9.591-9.591 4.303-9.591 9.591-9.591 9.591 4.303 9.591 9.591z" fill="#ffffff" data-original="#000000" style="" class=""/><path d="m192.223 446.518c13.56 0 24.591-11.031 24.591-24.591s-11.031-24.591-24.591-24.591-24.591 11.031-24.591 24.591 11.031 24.591 24.591 24.591zm0-34.182c5.289 0 9.591 4.303 9.591 9.591s-4.302 9.591-9.591 9.591-9.591-4.303-9.591-9.591 4.302-9.591 9.591-9.591z" fill="#ffffff" data-original="#000000" style="" class=""/><path d="m283.686 341.229c0 4.143 3.357 7.5 7.5 7.5h124.552c4.143 0 7.5-3.357 7.5-7.5s-3.357-7.5-7.5-7.5h-124.552c-4.142 0-7.5 3.358-7.5 7.5z" fill="#ffffff" data-original="#000000" style="" class=""/><path d="m383.889 306.057c4.143 0 7.5-3.357 7.5-7.5s-3.357-7.5-7.5-7.5h-60.854c-4.143 0-7.5 3.357-7.5 7.5s3.357 7.5 7.5 7.5z" fill="#ffffff" data-original="#000000" style="" class=""/><path d="m460.517 80.427-78.656-72.003c-5.933-5.433-13.63-8.424-21.674-8.424h-138.793c-4.142 0-7.5 3.357-7.5 7.5s3.358 7.5 7.5 7.5h138.793c4.284 0 8.385 1.594 11.545 4.487l66.273 60.668h-364.01l66.273-60.669c3.16-2.893 7.26-4.486 11.544-4.486h39.594c4.142 0 7.5-3.357 7.5-7.5s-3.358-7.5-7.5-7.5h-39.594c-8.044 0-15.741 2.991-21.674 8.423l-78.655 72.004c-10.072 1.554-17.816 10.256-17.816 20.756v315.211c0 4.143 3.358 7.5 7.5 7.5s7.5-3.357 7.5-7.5v-315.211c0-3.323 2.704-6.027 6.028-6.027h257.567v137.489c0 8.567 6.971 15.538 15.538 15.538h29.944c4.143 0 7.5-3.357 7.5-7.5s-3.357-7.5-7.5-7.5h-29.944c-.297 0-.538-.241-.538-.538v-137.49h80.976v137.489c0 .297-.241.538-.537.538h-19.969c-4.143 0-7.5 3.357-7.5 7.5s3.357 7.5 7.5 7.5h19.969c8.567 0 15.537-6.971 15.537-15.538v-137.489h34.067c3.323 0 6.027 2.704 6.027 6.027v389.79c0 3.323-2.704 6.027-6.027 6.027h-402.61c-3.324 0-6.028-2.704-6.028-6.027v-44.592c0-4.143-3.358-7.5-7.5-7.5s-7.5 3.357-7.5 7.5v44.592c0 11.595 9.433 21.028 21.028 21.028h402.61c11.595 0 21.027-9.433 21.027-21.027v-389.79c.001-10.5-7.743-19.202-17.815-20.756z" fill="#ffffff" data-original="#000000" style="" class=""/></g></g></svg>
